<svg width="289.3" height="85.1" xmlns="http://www.w3.org/2000/svg">
 <g stroke="null">
  <title>Layer 1</title>
  <g stroke="null" id="svg_1">
   <g stroke="null" id="svg_2">
    <path stroke="null" id="svg_3" d="m41.03037,42.92852c0.8,0 1.5,0.7 1.5,1.5c0,0.5 -0.3,1 -0.7,1.2l0,3.5l-2.5,2.5l0,4.8c0,0.4 -0.4,0.8 -0.8,0.8c-0.4,0 -0.8,-0.4 -0.8,-0.8l0,-5.2l0,0l0,0c0,-0.1 0,-0.1 0,-0.2l0,0l0,0l0,0l0,0l0,0l0,0l0,0l0,0l0,0l0,0l0,0l0,0l0,0l0,0l0,0l0,0l0,0l0,0l0,0l0,0l0,0l0,0l0,0l0,0c0,0 0,0 0.1,-0.1l0,0l0,0l0,0l0,0l0,0l0,0l2.2,-2.2l0,-2.9c-0.4,-0.3 -0.7,-0.7 -0.7,-1.2c0.2,-1.1 0.9,-1.7 1.7,-1.7l0,0zm-8,-42.8c-3.6,1.3 -7.1,3.2 -9.9,5.7c-3.1,2.7 -5.6,6.1 -7.2,9.9c-1,2.4 -1.7,4.9 -2,7.5c-0.7,7.1 2.1,13.3 7.5,17.9c0.8,0.7 1.6,1.4 2.3,2.1c0.5,0.6 1,1.1 1.3,1.9c0,0 0,0.1 0.1,0.1c-0.3,0.4 -0.6,0.8 -0.9,1.1c0,-0.3 -0.1,-0.6 -0.2,-0.8c-0.2,-0.6 -0.6,-1 -1,-1.5c-0.7,-0.7 -1.5,-1.4 -2.3,-2c-5.7,-4.9 -8.6,-11.4 -7.9,-18.9c0.3,-2.7 1,-5.3 2,-7.8c2.6,-5.9 6.2,-10 11.8,-13.1c-7.5,2.4 -19.2,9.8 -21.2,20.2c-0.1,-0.2 -0.4,-0.7 -0.6,-1.1c-2.9,6.5 -4.3,16.8 -1,22.1c-0.5,-0.2 -0.9,-0.4 -1.1,-0.7c0.8,3.9 2.2,10.7 8,10.6c-1.4,0.3 -2.9,0.3 -3.9,0.1c1.4,2.5 3.7,6 7.1,5.8c-0.5,0.4 -1.6,0.7 -2.2,0.8c1.1,1.2 3.1,3.6 6.3,3.2c-0.4,0.4 -1.1,0.6 -2,0.7c1.5,1.2 3.1,2.2 4.8,3.1c0.2,0.5 0.5,1.1 0.7,1.6c-2.7,-1.3 -5.3,-3 -7.6,-5c0.3,0 0.5,0 0.7,-0.1c-2.5,-0.9 -3.7,-2.7 -4.8,-4c0.3,0 0.5,0 0.7,-0.1c-2.6,-1.3 -4.4,-4.8 -5.6,-7c0.3,0.1 0.8,0.1 1,0c-3.1,-2.9 -4.1,-7.7 -4.7,-11.6c0.2,0.1 0.3,0.2 0.4,0.2c-1.3,-5.7 -1.1,-13.3 3.1,-21.7c0.1,0.2 0.2,0.3 0.4,0.4c4,-11.1 15.8,-18.6 27.9,-19.6l0,0zm15.6,79.4c-0.6,0.4 -1.2,0.8 -1.4,1.6c-0.9,0.5 -1.6,0.8 -2.9,1c1.3,0.2 2.5,0.1 3.8,-0.2c-0.1,-0.9 0.1,-1.8 0.5,-2.4l0,0zm2.9,-3.6c0,0.4 0,0.9 0,1.2c-0.4,0.3 -1.2,0.6 -1.9,0.7c1.3,0.2 2.5,0.1 3.6,-0.4c-0.7,-0.3 -1.2,-0.7 -1.7,-1.5l0,0zm-2.6,2.9c2,0.6 4.3,0.6 6.5,-1.1c-1.9,-1.1 -3.5,-2.6 -4.5,-4.5l0.9,-0.8c1.1,2.3 3.1,4 5.6,5c-1.6,2 -4.2,3.1 -6.4,2.9c-0.8,0.9 -1.1,2.6 -0.3,3.7c-4.1,0.5 -6.5,1.2 -9.3,-1l0.2,-1.3c1,0.7 1.7,1.3 2.9,1.5c0.8,0.1 1.7,0.1 2.5,0c0.7,-0.1 1.3,-0.2 2,-0.2c-0.1,-1.1 0.1,-2.3 0.8,-3.1c-0.3,-0.4 -0.7,-0.6 -0.9,-1.1l0,0zm-22.4,0.7c0.6,0.4 1.2,0.8 1.4,1.6c0.9,0.5 1.6,0.8 2.9,1c-1.3,0.2 -2.5,0.1 -3.8,-0.2c0,-0.9 -0.2,-1.8 -0.5,-2.4l0,0zm-3,-3.6c0,0.4 0,0.9 0,1.2c0.4,0.3 1.2,0.6 1.9,0.7c-1.3,0.2 -2.5,0.1 -3.6,-0.4c0.8,-0.3 1.2,-0.7 1.7,-1.5l0,0zm2.6,2.9c-2,0.6 -4.3,0.6 -6.5,-1.1c1.9,-1.1 3.5,-2.6 4.5,-4.5l-0.9,-0.8c-1.1,2.3 -3.1,4 -5.6,5c1.6,2 4.2,3.1 6.4,2.9c0.8,0.9 1.1,2.6 0.3,3.7c4.1,0.5 6.5,1.2 9.3,-1l-0.2,-1.3c-1,0.7 -1.7,1.3 -2.9,1.5c-0.8,0.1 -1.7,0.1 -2.5,0c-0.7,-0.1 -1.3,-0.2 -2,-0.2c0.1,-1.1 -0.1,-2.3 -0.8,-3.1c0.4,-0.4 0.7,-0.6 0.9,-1.1l0,0zm23.8,-33.6c0.3,0.4 0.6,0.8 0.9,1.1c0,-0.3 0.1,-0.6 0.2,-0.8c0.2,-0.6 0.6,-1 1,-1.5c0.7,-0.7 1.5,-1.4 2.3,-2c5.7,-4.9 8.6,-11.4 7.9,-18.9c-0.3,-2.7 -1,-5.3 -2,-7.8c-2.6,-6 -6.2,-10.1 -11.8,-13.2c7.5,2.4 19.3,9.8 21.3,20.2c0.1,-0.2 0.4,-0.7 0.6,-1.1c2.9,6.5 4.2,16.9 1,22.1c0.5,-0.2 0.9,-0.4 1.1,-0.7c-0.8,3.9 -2.2,10.7 -8,10.6c1.4,0.3 2.9,0.3 3.9,0.1c-1.4,2.5 -3.7,6 -7.1,5.8c0.5,0.4 1.6,0.7 2.2,0.8c-1.1,1.2 -3.1,3.6 -6.3,3.2c0.4,0.4 1.1,0.6 2,0.7c-1.5,1.2 -3.1,2.2 -4.8,3.1c-0.2,0.5 -0.5,1.1 -0.7,1.6c2.7,-1.3 5.3,-3 7.6,-5c-0.3,0 -0.5,0 -0.7,-0.1c2.5,-0.9 3.7,-2.7 4.8,-4c-0.3,0 -0.5,0 -0.7,-0.1c2.6,-1.3 4.4,-4.8 5.6,-7c-0.3,0.1 -0.8,0.1 -1,0c3.1,-2.9 4.1,-7.7 4.7,-11.6c-0.2,0.1 -0.3,0.2 -0.4,0.2c1.3,-5.7 1.1,-13.3 -3.1,-21.7c-0.1,0.2 -0.2,0.3 -0.4,0.4c-4,-11 -15.8,-18.5 -28,-19.5c3.6,1.3 7.1,3.2 9.9,5.7c3.1,2.7 5.6,6.1 7.2,9.9c1,2.4 1.7,4.9 2,7.5c0.7,7.1 -2.1,13.3 -7.5,17.9c-0.8,0.7 -1.6,1.4 -2.3,2.1c-0.5,0.6 -1,1.1 -1.3,1.9c0,0 0,0 -0.1,0.1l0,0zm-13.7,-8.3c-1.2,-0.4 -1.6,-1.6 -1.1,-2.9c0,0.9 0.3,1.6 1,1.9c0.7,-0.5 0.9,-1.2 0.7,-2.1c0.7,1.3 0.5,2.6 -0.6,3.1l0,0zm8.7,-5.6c-0.6,-0.3 -1.2,-0.4 -1.8,-0.4c-0.3,0 -0.6,-0.2 -0.5,-0.8c-0.6,1.4 -0.8,2.2 -2.6,1.8c-1,-0.2 -1.5,0.6 -1.3,1.5c0.1,0.5 0.3,1.3 -0.2,1.8c-0.2,-0.8 -0.7,-1.2 -1.2,-1.5c0.9,1.3 0.5,2.1 0.3,2.5c2.1,-0.4 2.1,1.3 1.8,2.1c0.5,0 1,0.1 1.4,0.1c-0.5,-1.7 -0.9,-3.4 -1.1,-5.2c0,-0.3 0,-0.4 0.2,-0.3c1.2,0.2 2.3,0 3,-1c1.2,-0.1 2.1,0.3 3,0.9c0.2,-1.9 0.3,-3.7 -2,-4.4c-0.3,-1.1 -1.2,-1.5 -2.3,-1.4c-1.5,-2.3 -6.8,0.1 -8.9,-1.4c-0.7,-0.5 -0.9,-1.4 -1,-2.2c-0.7,0.7 -1.3,1.2 -1.6,2.2c-0.5,1.4 -0.2,3.1 0.7,4.3c0.6,0.8 1.5,1.4 2.4,1.6c-0.1,0.1 -0.2,0.2 -0.2,0.3c-1.2,1.9 -1,4.7 -1,6.9c0.3,-0.1 0.7,-0.1 1,-0.2c-0.3,-1 0,-2.2 1.5,-2.3c-0.2,-0.4 -0.5,-1.2 0.3,-2.5c-0.5,0.2 -1,0.7 -1.2,1.5c-0.4,-0.6 -0.4,-1.2 -0.2,-1.7c0.1,-0.3 0.2,-0.5 0.3,-0.7c0,0 0,-0.1 0,-0.1c1,-2 4.6,-0.7 5.6,-3.8c-0.3,0.4 -0.7,0.7 -1.1,0.9c-0.6,0.3 -1.1,-0.9 -1.9,-0.9c0.3,0.2 0.4,0.6 0.4,1c-0.1,0.4 -0.3,0.5 -0.6,0.2c-0.3,-0.3 -0.5,-0.9 -1.1,-1c0.3,0.3 0.3,0.7 0.2,1c-0.1,0.4 -0.4,0.6 -0.7,0.2c-0.2,-0.2 -0.3,-0.6 -0.6,-0.8c0.1,0.5 -0.4,1 -1,0.7c-0.9,-0.4 -1.5,-1 -1.9,-1.9c-0.3,-0.9 -0.3,-1.9 0.1,-2.7c0,0 0,0 0,-0.1c1.9,3.5 8.7,0.1 9.6,2.3l0.1,0.4l0.4,0c0.7,-0.1 1.5,-0.1 1.6,0.8l0,0.4l0.3,0.1c1.3,0.1 1.8,0.8 1.8,1.8l0,0zm-10.9,7.1c0.2,-0.4 0.5,-0.6 0.7,-0.8c-0.1,0.3 -0.2,0.5 -0.3,0.8c-0.1,0 -0.2,0 -0.4,0l0,0zm4.2,-0.1c-0.1,-0.3 -0.4,-0.7 -0.7,-1.1c0.5,0.1 1,0.4 1.4,1.1c-0.2,0 -0.5,0 -0.7,0l0,0zm-3.1,0c0,-0.2 0.1,-0.4 0.1,-0.6c0,0.2 0,0.4 0.1,0.5l-0.2,0.1l0,0zm2.1,0c0,-0.2 -0.1,-0.5 -0.1,-0.8c0.2,0.3 0.3,0.5 0.4,0.8l-0.3,0l0,0zm-25.4,-11.4c-0.2,6.5 2.5,12 8.2,17.3c1.2,1.3 1.3,2.7 1.7,4c0.2,-0.1 0.4,-0.2 0.6,-0.4c-0.1,-0.6 -0.1,-1.1 -0.2,-1.5c0.3,0.2 0.5,0.6 0.7,1.2c0.2,-0.1 0.3,-0.3 0.5,-0.4c0,-0.2 -0.1,-0.4 -0.1,-0.6c0,-0.2 -0.1,-0.5 -0.2,-0.7c-0.4,-1 -2.2,-2.4 -3,-3.1c-4.8,-4.2 -7.8,-9.6 -8.2,-15.8l0,0zm0.3,9.8c-6.9,-6.1 -5.2,-16.9 0.1,-21.3c-0.6,2.5 -0.7,5 -0.4,7.6c0.3,-2.8 1,-5.5 2.1,-8.1c1.3,-3 3.2,-6 5.6,-8.6c-5.2,3.3 -10.5,8.3 -12.5,14c-1.7,5.1 -0.9,12.7 5.1,16.4l0,0zm-7.6,-11.1c-2.9,9.5 -2,21.1 7.1,18.6c-5.6,0.2 -7.6,-3.3 -7.1,-11c1.4,3.4 4.4,5.2 7.2,6.1c-4.4,-3.1 -7,-6.5 -7.2,-13.7l0,0zm-0.1,19.9c1.4,7.1 6,7.4 8.7,4.8c-3.2,1.7 -5.4,0.2 -6.4,-2.2c2.6,0.2 3.9,-0.5 5.2,-1.6c-2.3,0.7 -4.7,0.8 -7.5,-1l0,0zm4.4,9.4c3.3,5.1 6.7,2.6 7.6,0.8c-1.5,1.3 -3.7,1.5 -4.8,0.1c1.4,-0.6 2.4,-1.7 2.9,-2.8c-1.7,1.3 -3.6,1.9 -5.7,1.9l0,0zm8.8,2.1c-0.9,1.8 -2.3,3 -4.1,3.5c1.7,1.9 4.4,2.2 5.5,0.7c0,-0.3 -0.1,-0.5 -0.1,-0.8c-0.7,0.8 -1.8,1.1 -2.9,0.3c0.9,-1.1 1.4,-2.3 1.6,-3.7l0,0zm2.3,7.7c-0.1,-0.4 -0.2,-0.8 -0.3,-1.1c-0.4,0.5 -0.8,0.7 -1.4,0.8c0.8,0.5 1.4,0.6 1.7,0.3l0,0zm-7.3,-25.9c-1.2,6.4 2,5.7 3.9,5.5c-1.8,-0.3 -3.3,-1 -3.2,-2.9c0.9,0.6 2.2,0.8 3.2,0.8c-2.3,-1 -3.4,-2.8 -3.9,-3.4l0,0zm0.1,6.4c-0.1,5.7 3.4,4.3 4.6,3.1c-1.7,0.6 -3.1,0.3 -3.2,-1.3c1.4,0.1 2.3,-0.5 2.9,-1.1c-2.6,0.7 -3.7,-0.2 -4.3,-0.7l0,0zm1.3,5.7c1.6,4 3.4,2.9 4.4,1.5c0,-0.2 0,-0.3 0,-0.5c-1.1,0.9 -2.1,1 -2.5,0.1c1.3,-0.6 1.8,-1.6 2,-2.4c-1.8,1.7 -3.2,1.4 -3.9,1.3l0,0zm2.5,4c0.8,1.2 1.5,1.8 2,2.1c-0.1,-0.8 -0.1,-1.7 -0.1,-2.5c-0.8,0.5 -1.5,0.4 -1.9,0.4l0,0zm0.8,-10.7c0.1,4.2 2.1,3.4 3.2,2.9c-1.1,0.1 -2.2,-0.1 -2.2,-1.4c0.7,0.2 1.3,0.1 1.9,0c-1.6,-0.2 -2.6,-1.2 -2.9,-1.5l0,0zm0.7,4.1c0.2,0.7 0.4,1.2 0.6,1.6l0,-0.3l0.5,-0.2c0,-0.1 0,-0.1 -0.1,-0.2c0.9,-0.2 1.3,-0.7 1.6,-1.2c-1.4,0.9 -2.2,0.5 -2.6,0.3l0,0zm-7.8,-27.8c-1.7,3.2 -2,9.6 1.8,14.1c-0.9,-1.2 -2.2,-5.4 -1.7,-8.8c-0.5,-1.5 -0.6,-3.4 -0.1,-5.3l0,0zm-4.2,17.8c0.6,2.8 2.1,4.5 4.8,4.6c-1.1,-0.5 -2,-1 -2.5,-1.8c0.7,0.1 1.5,0.1 2.3,-0.2c-1.9,-0.3 -3.4,-1.3 -4.6,-2.6l0,0zm3.7,11c0.7,0.6 1.6,0.7 2.5,0.3c-0.3,0 -0.6,-0.1 -0.8,-0.3c0.2,-0.2 0.3,-0.5 0.3,-0.7c-0.5,0.5 -1.3,0.7 -2,0.7l0,0zm3.8,6.3c0.7,0.1 1.5,0.2 2.1,-0.5c-0.3,0.1 -0.5,0.1 -0.7,0c0.1,-0.3 0.1,-0.6 0,-0.9c-0.2,0.6 -0.7,1.1 -1.4,1.4l0,0zm3.9,4.4c0.5,-0.1 1,-0.3 1.3,-0.7c0,-0.1 0,-0.2 0,-0.4c-0.1,0 -0.2,0.1 -0.3,0c0,-0.2 -0.2,-0.6 -0.4,-0.8c0.1,0.7 -0.2,1.4 -0.6,1.9l0,0zm45.9,-33.1c0.2,6.5 -2.5,12 -8.2,17.3c-1.2,1.3 -1.3,2.7 -1.7,4c-0.2,-0.1 -0.4,-0.2 -0.6,-0.4c0.1,-0.6 0.1,-1.1 0.2,-1.5c-0.3,0.2 -0.5,0.6 -0.7,1.2c-0.2,-0.1 -0.3,-0.3 -0.5,-0.4c0,-0.2 0.1,-0.4 0.1,-0.6c0,-0.2 0.1,-0.5 0.2,-0.7c0.4,-1 2.2,-2.4 3,-3.1c4.8,-4.2 7.7,-9.6 8.2,-15.8l0,0zm-0.4,9.8c6.9,-6.2 5.2,-16.9 -0.1,-21.4c0.6,2.5 0.7,5 0.4,7.6c-0.3,-2.8 -1,-5.5 -2.1,-8.1c-1.3,-3 -3.2,-6 -5.6,-8.6c5.2,3.3 10.5,8.3 12.5,14c1.8,5.2 1,12.8 -5.1,16.5l0,0zm7.6,-11.1c2.9,9.5 2,21.1 -7.1,18.6c5.6,0.2 7.6,-3.3 7.1,-11c-1.4,3.4 -4.4,5.2 -7.2,6.1c4.4,-3.1 7,-6.5 7.2,-13.7l0,0zm0.1,19.9c-1.4,7.1 -6,7.4 -8.7,4.8c3.2,1.7 5.4,0.2 6.4,-2.2c-2.6,0.2 -3.9,-0.5 -5.2,-1.6c2.4,0.7 4.8,0.8 7.5,-1l0,0zm-4.4,9.4c-3.3,5.1 -6.7,2.6 -7.6,0.8c1.5,1.3 3.7,1.5 4.8,0.1c-1.4,-0.6 -2.4,-1.7 -2.9,-2.8c1.8,1.3 3.7,1.9 5.7,1.9l0,0zm-8.7,2.1c0.9,1.8 2.3,3 4.1,3.5c-1.7,1.9 -4.4,2.2 -5.5,0.7c0,-0.3 0.1,-0.5 0.1,-0.8c0.7,0.8 1.8,1.1 2.9,0.3c-0.9,-1.1 -1.4,-2.3 -1.6,-3.7l0,0zm-2.3,7.7c0.1,-0.4 0.2,-0.8 0.3,-1.1c0.4,0.5 0.8,0.7 1.4,0.8c-0.9,0.5 -1.4,0.6 -1.7,0.3l0,0zm7.2,-25.9c1.2,6.4 -2,5.7 -3.9,5.5c1.8,-0.3 3.3,-1 3.2,-2.9c-0.8,0.6 -2.2,0.7 -3.1,0.7c2.3,-0.9 3.3,-2.7 3.8,-3.3l0,0zm-0.1,6.4c0.1,5.7 -3.4,4.3 -4.6,3.1c1.7,0.6 3.1,0.3 3.2,-1.3c-1.4,0.1 -2.3,-0.5 -2.9,-1.1c2.6,0.7 3.8,-0.2 4.3,-0.7l0,0zm-1.3,5.7c-1.6,4 -3.4,2.9 -4.4,1.5c0,-0.2 0,-0.3 0,-0.5c1.1,0.9 2.1,1 2.5,0.1c-1.3,-0.6 -1.8,-1.6 -2,-2.4c1.8,1.7 3.2,1.4 3.9,1.3l0,0zm-2.4,4c-0.8,1.2 -1.5,1.8 -2,2.1c0.1,-0.8 0.1,-1.7 0.1,-2.5c0.7,0.5 1.4,0.4 1.9,0.4l0,0zm-0.8,-10.7c-0.1,4.2 -2.1,3.4 -3.2,2.9c1.1,0.1 2.2,-0.1 2.2,-1.4c-0.7,0.2 -1.3,0.1 -1.9,0c1.6,-0.2 2.5,-1.2 2.9,-1.5l0,0zm-0.7,4.1c-0.2,0.7 -0.4,1.2 -0.6,1.6l0,-0.3l-0.6,-0.2c0,-0.1 0,-0.1 0.1,-0.2c-0.9,-0.2 -1.3,-0.7 -1.6,-1.2c1.4,0.9 2.3,0.5 2.7,0.3l0,0zm7.7,-27.8c1.7,3.2 2,9.6 -1.8,14.1c0.9,-1.2 2.2,-5.4 1.7,-8.8c0.5,-1.5 0.7,-3.4 0.1,-5.3l0,0zm4.2,17.8c-0.6,2.8 -2.1,4.5 -4.8,4.6c1.1,-0.5 2,-1 2.5,-1.8c-0.7,0.1 -1.5,0.1 -2.3,-0.2c2,-0.3 3.5,-1.3 4.6,-2.6l0,0zm-3.6,11c-0.7,0.6 -1.6,0.7 -2.5,0.3c0.3,0 0.6,-0.1 0.8,-0.3c-0.2,-0.2 -0.3,-0.5 -0.3,-0.7c0.5,0.5 1.2,0.7 2,0.7l0,0zm-3.8,6.3c-0.7,0.1 -1.5,0.2 -2.1,-0.5c0.3,0.1 0.5,0.1 0.7,0c-0.1,-0.3 -0.1,-0.6 0,-0.9c0.1,0.6 0.7,1.1 1.4,1.4l0,0zm-3.9,4.4c-0.5,-0.1 -1,-0.3 -1.3,-0.7c0,-0.1 0,-0.2 0,-0.4c0.1,0 0.2,0.1 0.3,0c0,-0.2 0.2,-0.6 0.4,-0.8c-0.1,0.7 0.1,1.4 0.6,1.9l0,0zm-20.1,-32.4c1.4,0.7 2.4,0.1 3.2,0.5c0.6,0.3 0.9,1.5 0.1,1.7c0,-0.6 -0.5,-0.5 -0.8,-0.5c-0.3,0 -0.6,-0.3 -0.6,-0.6c0,-0.1 0,-0.2 0.1,-0.3c-0.7,0 -1.5,-0.1 -2,-0.8l0,0zm-5.7,-0.3c-0.1,1 0.3,1.8 1.2,2.3c-0.2,-0.4 -0.3,-0.8 -0.4,-1.3c1.5,0.2 3.1,-0.1 4.4,-0.7c-2,0.5 -3.7,0.3 -5.2,-0.3l0,0zm17.2,36.1c0.8,0.4 1.6,0.4 2.4,0.2c0.8,-0.2 1.5,-0.6 2,-1.3c0.7,-0.8 0.9,-1.8 0.8,-2.7c-0.1,-0.7 -0.4,-1.5 -0.9,-2.1c0.2,-0.4 0.3,-0.8 0.4,-1.3c0.1,-0.8 0.1,-1.6 -0.2,-2.3c-0.3,-0.7 -0.7,-1.3 -1.3,-1.9c-0.6,-0.5 -1.4,-0.8 -2.1,-1c-0.8,-0.1 -1.6,0 -2.3,0.2c-0.5,0.2 -1,0.5 -1.4,0.8c-0.7,-0.4 -1.4,-0.5 -2.1,-0.4c-0.9,0.1 -1.9,0.5 -2.5,1.3c-0.5,0.6 -0.8,1.4 -0.9,2.2c0,0.8 0.2,1.6 0.7,2.3c0.2,0.4 0.7,0.4 1.1,0.2c0.4,-0.2 0.4,-0.7 0.2,-1.1c-0.3,-0.4 -0.4,-0.9 -0.4,-1.3c0,-0.5 0.2,-0.9 0.5,-1.3c0.4,-0.5 0.9,-0.7 1.5,-0.8c0.3,0 0.7,0 1,0.1c-0.2,0.4 -0.4,0.9 -0.5,1.3c-0.1,0.4 0.2,0.8 0.6,0.9c0.4,0.1 0.8,-0.2 0.9,-0.6c0.1,-0.5 0.3,-1 0.6,-1.3c0.3,-0.4 0.8,-0.7 1.2,-0.9c0.5,-0.2 1,-0.2 1.5,-0.1c0.5,0.1 0.9,0.3 1.3,0.6c0.4,0.3 0.7,0.8 0.9,1.2c0.2,0.5 0.2,1 0.1,1.5c-0.1,0.5 -0.3,1 -0.6,1.4c-0.3,0.4 -0.7,0.7 -1.2,0.8c-0.4,0.1 -0.6,0.6 -0.5,1c0.1,0.4 0.6,0.6 1,0.5c0.6,-0.2 1,-0.5 1.4,-0.9c0.2,0.3 0.3,0.6 0.3,0.9c0.1,0.6 -0.1,1.1 -0.5,1.6c-0.3,0.4 -0.7,0.6 -1.2,0.7c-0.5,0.1 -0.9,0.1 -1.4,-0.1c-0.4,-0.2 -0.9,0 -1,0.4c0,0.7 0.2,1.2 0.6,1.3l0,0zm-0.8,1.6c0,0.3 0,0.5 0,0.8l0,0.3l-2.3,1l-0.1,0.3c-0.1,0.3 -0.2,0.6 -0.3,0.9c-0.1,0.3 -0.3,0.6 -0.4,0.9l-0.2,0.3l0.9,2.3c-0.2,0.3 -0.5,0.6 -0.7,0.8c-0.3,0.3 -0.5,0.5 -0.8,0.7l-2.3,-0.9l-0.3,0.2c-0.3,0.1 -0.6,0.3 -0.9,0.4c-0.3,0.1 -0.6,0.2 -0.9,0.3l-0.4,0.1l-1,2.3l-0.3,0c-0.2,0 -0.5,0 -0.8,0c-0.3,0 -0.5,0 -0.8,0l-0.3,0l-1,-2.3l-0.4,-0.1c-0.3,-0.1 -0.6,-0.2 -0.9,-0.3c-0.3,-0.1 -0.6,-0.3 -0.9,-0.4l-0.3,-0.2l-2.3,0.9c-0.3,-0.2 -0.6,-0.5 -0.8,-0.7c-0.3,-0.3 -0.5,-0.5 -0.7,-0.8l0.9,-2.3l-0.1,-0.2c-0.1,-0.3 -0.3,-0.6 -0.4,-0.9c-0.1,-0.3 -0.2,-0.6 -0.3,-0.9l-0.1,-0.4l-2.3,-1l0,-0.3c0,-0.2 0,-0.5 0,-0.8c0,-0.4 -0.4,-0.8 -0.8,-0.8c-0.4,0 -0.8,0.4 -0.8,0.8c0,0.3 0,0.6 0,0.9c0,0.3 0.1,0.6 0.1,0.9l0.1,0.4l2.4,1.1c0.1,0.2 0.2,0.5 0.3,0.7c0.1,0.2 0.2,0.5 0.3,0.7l-1,2.4l0.3,0.4c0.4,0.5 0.7,0.9 1.2,1.3c0.4,0.4 0.9,0.8 1.3,1.2l0.3,0.3l2.5,-1c0.2,0.1 0.5,0.2 0.7,0.3c0.2,0.1 0.5,0.2 0.7,0.3l1,2.4l0.4,0.1c0.3,0 0.6,0.1 0.9,0.1c0.3,0 0.6,0 0.9,0c0.3,0 0.6,0 0.9,0c0.3,0 0.6,-0.1 0.9,-0.1l0.4,-0.1l1.1,-2.4c0.2,-0.1 0.5,-0.2 0.7,-0.3c0.2,-0.1 0.5,-0.2 0.7,-0.3l2.4,1l0.4,-0.3c0.5,-0.4 0.9,-0.7 1.3,-1.2c0.4,-0.4 0.8,-0.9 1.2,-1.3l0.3,-0.3l-1,-2.5c0.1,-0.2 0.2,-0.5 0.3,-0.7c0.1,-0.2 0.2,-0.5 0.3,-0.7l2.4,-1l0.1,-0.4c0,-0.3 0.1,-0.6 0.1,-0.9c0,-0.3 0,-0.6 0,-0.9c0,-0.4 -0.4,-0.8 -0.8,-0.8c-0.6,0 -1,0.3 -1,0.7l0,0zm-21.6,-8.1c1.3,-4.4 -1.9,-4.1 -2.9,-6.1c0.9,2.1 -1.4,4.3 2.9,6.1l0,0zm19.9,1.1c-0.3,0.4 -0.6,0.8 -0.8,1.1c-0.1,0.2 -0.3,0.4 -0.4,0.5c-0.3,-0.2 -0.5,-0.3 -0.8,-0.5c-0.5,-0.2 -1.1,-0.4 -1.7,-0.5c-0.4,-0.1 -0.8,0.2 -0.9,0.6c-0.1,0.4 0.2,0.8 0.6,0.9c0.4,0.1 0.9,0.2 1.3,0.4c0.2,0.1 0.3,0.2 0.5,0.3c-1.4,1.6 -3,3.1 -4.8,4.4c-0.7,0.6 -1.5,1.1 -2.3,1.6c-0.2,-0.1 -0.4,-0.3 -0.6,-0.4c-0.4,-0.2 -0.8,-0.2 -1.1,0.2c-0.2,0.4 -0.2,0.8 0.2,1.1c-0.8,0.5 -1.7,0.9 -2.6,1.3c-0.4,0.2 -0.6,0.6 -0.4,1c0.2,0.4 0.6,0.6 1,0.4c1.2,-0.5 2.3,-1.1 3.4,-1.7c0.4,0.2 0.8,0.5 1.2,0.7c0.9,0.5 1.8,1 2.8,1.4c0.4,0.2 0.9,0 1,-0.4c0.2,-0.4 0,-0.9 -0.4,-1c-0.9,-0.4 -1.8,-0.8 -2.7,-1.3c-0.1,-0.1 -0.3,-0.2 -0.4,-0.2c0.6,-0.4 1.2,-0.8 1.8,-1.2c1.8,-1.4 3.5,-3 5,-4.7c0.1,0.1 0.2,0.3 0.4,0.4c0.3,0.4 0.5,0.8 0.6,1.2c0.1,0.4 0.6,0.6 1,0.5c0.4,-0.1 0.6,-0.6 0.5,-1c-0.2,-0.5 -0.5,-1.1 -0.8,-1.5c-0.2,-0.3 -0.4,-0.5 -0.6,-0.8c0.2,-0.2 0.3,-0.4 0.5,-0.6c0.3,-0.4 0.6,-0.8 0.9,-1.2c0.2,-0.4 0.2,-0.8 -0.2,-1.1c-0.4,-0.3 -0.9,-0.3 -1.2,0.1l0,0zm-10.9,3.6c1.9,2.9 -0.4,3.2 -0.6,4.8c-1.3,-2.8 0.4,-3.2 0.6,-4.8l0,0zm-6.7,4.2c3,2.8 3.8,0.2 5.7,0.3c-2.9,-2.1 -3.8,-0.2 -5.7,-0.3l0,0zm-2.6,-3c2.7,3.6 4,1 6,1.5c-2.7,-2.9 -4,-1 -6,-1.5l0,0zm5.6,-5c-0.1,1.8 -2,2.4 -0.3,5.5c0.1,-1.8 2.7,-2.3 0.3,-5.5l0,0zm-1.4,-2.6c-0.2,1.9 -2.3,2.4 -0.7,5.8c0.3,-1.9 3,-2.2 0.7,-5.8l0,0zm-6.2,4.7c2.3,3.9 3.9,1.4 5.9,2.1c-2.5,-3.1 -4,-1.4 -5.9,-2.1l0,0zm-1.7,-3.2c1.7,4.2 3.7,2 5.5,2.9c-1.9,-3.4 -3.7,-1.9 -5.5,-2.9l0,0zm5.8,-3.9c-0.1,2.1 -2.2,2.8 -0.2,6.2c0,-2.1 2.9,-2.6 0.2,-6.2l0,0zm5.6,6.7c-0.2,1.8 -2.2,2.3 -0.6,5.5c0.2,-1.9 2.7,-2.1 0.6,-5.5l0,0zm0.3,-5.2l0,3.9l4.4,4.4c0.3,0.3 0.8,0.3 1.1,0c0.3,-0.3 0.3,-0.8 0,-1.1l-3.9,-3.9l0,-7.2l2.5,-2.5l0,-2.3c0.4,-0.3 0.7,-0.7 0.7,-1.2c0,-0.8 -0.7,-1.5 -1.5,-1.5c-0.8,0 -1.5,0.7 -1.5,1.5c0,0.5 0.3,1 0.7,1.2l0,1.7l-2.5,2.5l0,2.3l-1.8,-1.8l0,-4.7c0.4,-0.3 0.7,-0.7 0.7,-1.2c0,-0.8 -0.7,-1.5 -1.5,-1.5c-0.8,0 -1.5,0.7 -1.5,1.5c0,0.5 0.3,1 0.7,1.2l0,5.4l3.4,3.3l0,0zm6.6,-10.4c-0.3,0 -0.5,0.2 -0.5,0.5c0,0.3 0.2,0.5 0.5,0.5c0.3,0 0.5,-0.2 0.5,-0.5c0,-0.3 -0.3,-0.5 -0.5,-0.5l0,0zm-3.4,0c-0.3,0 -0.5,0.2 -0.5,0.5c0,0.3 0.2,0.5 0.5,0.5c0.3,0 0.5,-0.2 0.5,-0.5c0,-0.3 -0.2,-0.5 -0.5,-0.5l0,0zm-5.8,0c-0.3,0 -0.5,0.2 -0.5,0.5c0,0.3 0.2,0.5 0.5,0.5c0.3,0 0.5,-0.2 0.5,-0.5c0,-0.3 -0.2,-0.5 -0.5,-0.5z" fill="#00598e" clip-rule="evenodd" fill-rule="evenodd"/>
    <path stroke="null" id="svg_4" d="m37.53037,85.22852c14.4,-6.9 22.5,-18.2 20.3,-36.8c-5.1,-1.3 -8.1,-4.3 -8.5,-9.4c-3.5,-1.5 -7.5,-2.3 -11.8,-2.3c-4.3,0 -8.3,0.7 -11.8,2.3c-0.5,5 -3.5,8.1 -8.5,9.4c-2.2,18.6 5.9,29.9 20.3,36.8l0,0zm-9.5,-44.5c3,-1.1 6.3,-1.6 9.6,-1.6c3.2,0 6.5,0.5 9.6,1.6c0.9,4.8 4,7.9 8.5,9.5c1.3,15.1 -4.6,25.5 -18,32.3c-13.4,-6.8 -19.4,-17.2 -18,-32.3c4.3,-1.6 7.4,-4.7 8.3,-9.5z" fill="#6CAF60" clip-rule="evenodd" fill-rule="evenodd"/>
   </g>
  </g>
  <text fill="#00598e" stroke-width="0" x="82.55985" y="30.17295" id="svg_10" font-size="18" font-family="monospace" text-anchor="start" xml:space="preserve" stroke="#000" transform="matrix(0.701875 0 0 1 24.6093 0)">NAVOIY VILOYATI</text>
  <text fill="#00598e" stroke-width="0" x="82.29828" y="47.7959" id="svg_11" font-size="18" font-family="monospace" text-anchor="start" xml:space="preserve" font-weight="bold" stroke="#000" transform="matrix(0.734338 0 0 1 21.6951 0)">BANDLIK</text>
  <text fill="#00598e" stroke-width="0" x="81.28478" y="65.00901" id="svg_12" font-size="18" font-family="monospace" text-anchor="start" xml:space="preserve" stroke="#000" transform="matrix(0.705453 0 0 1 24.3582 0.819672)">BOSH BOSHQARMASI</text>
 </g>

</svg>